<?xml version="1.0" encoding="UTF-8"?>
<svg width="615.61" height="722.83" version="1.1" viewBox="0 0 615.61 722.83" xmlns="http://www.w3.org/2000/svg">
 <g transform="translate(-4.7317 -2.5833)">
  <path d="m357.78 98.97c-11.492 0.44285-20.352 17.136-29.391 16.674-4.7656-0.24371-9.9804-6.2727-14.15-8.4394-11.216-5.8278-22.777-5.2963-33.777 0.69531-9.6657 5.2647-16.737 12.433-20.477 22.977-1.513 4.2656-1.499 13.077-4.4316 16.355-1.9879 2.2222-8.1605 2.2781-10.979 3.2773-6.0365 2.1405-12.206 6.1885-16.826 10.607-3.8703 3.7017-7.3694 14.572-12.047 16.346-2.5352 0.96114-20.753 0.6537-23.111-0.58594-12.051-6.3351-17.307-20.922-29.818-26.91-27.283-13.058-49.425 12.483-45.125 38.436-25.893 7.9241-36.781 29.197-26.215 55.414 2.9543 7.3304 11.9 14.498 12.949 22.047 1.3631 9.806-1.4309 19.411 4.0586 28.619 7.4894 12.563 23.553 13.87 34.805 21 7.5688 4.7961 9.8493 14.902 17.68 18.844 11.42 5.7484 26.048 0.99154 38.262 2.7715 13.955 2.0337 24.968 12.468 38.791 14.766 11.189 1.8598 20.804-3.8686 31.666-4.7676 11.594-0.95956 30.903 11.337 40.105 5.5137 6.8828-4.3555 3.8239-15.975 2.4238-22.504-2.8186-13.143-10.996-24.205-12.797-37.734-1.8559-13.942 4.8031-29.078-4.4863-41.43-10.822-14.388-27.957-8.9233-40.537-18.604-13.158-10.125-16.497-29.146-25.348-42.352 6.4273-3.2496 5.8654-11.103 11.092-15.641 9.0687-7.8738 23.367-7.3064 30.043-17.346 7.7659-11.678 4.1239-24.965 17.975-33.064 16.432-9.6094 25.207 9.9433 41.166 9.5527 12.813-0.31362 19.036-16.799 30.082-16.85 9.6686-0.0445 20.299 21.49 28.764 26.455 12.715 7.4573 22.01-4.5479 34.305-1.7148 13.332 3.072 18.682 19.997 26.652 29.607-18.798 6.9108-27.384 24.746-43.014 35.434-13.185 9.0162-29.737 4.7123-43.012 13.979-14.658 10.232-11.146 24.139-19.521 36.797-5.4797 8.2811-20.125 11.096-26.838 20.662-11.138 15.872 0.68924 36.169 0.43359 53.041-0.0951 6.2758-4.1825 15.868 0.40821 21.08 6.4049 7.2724 19.203 3.4992 27.045 2.9844 6.1054-0.40079 11.603 3.6414 17.943 3.3125 11.805-0.61232 23.093-5.4654 34.834-5.9785 26.582-1.1617 49.868-5.6025 75.732-10.98 13.932-2.8969 27.977-3.5202 39.051-13.689 9.4937-8.7181 4.1066-23.312 12.732-32.039 13.18-13.334 29.719-16.023 37.533-35.674 5.0378-12.669-0.12973-24.704 2.5918-37.207 1.6166-7.4273 7.6859-10.652 11.912-16.361 7.2018-9.7287 10.056-24.82 4.4277-35.887-20.59-40.487-73.354 10.457-103.99-0.5918-19.769-7.1291-22.702-32.258-40.143-41.736-7.0303-3.8207-16.073-5.8909-24.014-4.2305-3.8993 0.81535-11.918 5.4005-15.568 4.0508-16.24-6.0042-18.509-29.803-39.846-28.98zm-27.76 39.398c-2.5014 0.04438-5.0309 1.0508-6.9024 3.1289-3.2658 3.6264-2.7566 10.637-4.3086 15.238-4.8941 14.508-10.773 29.553-10.904 45.123h-0.26367c-4.5309-7.6102-27.841-38.323-36.863-23.996-3.6058 5.7256 0.89407 11.792 5.2012 15.51 11.959 10.324 24.529 24.357 29.055 39.889 1.8826 6.4603 0.12658 13.963 2.2109 20.055 1.6073 4.6976 8.0355 7.3394 12.533 5.3418 6.0045-2.6668 4.961-9.7676 4.7207-15.105-0.3312-7.3578 1.4453-14.829 0.95899-21.373-0.29777-4.0068-2.0763-12.447 0.23046-15.955 6.1801-9.3991 10.509-20.506 22.592-23.625 11.938-3.0817 25.39 4.4388 36.414-2.7227 10.697-6.9492 2.4356-22.389-9.2344-17.6 1.7998-8.0166-2.2274-32.005-14.326-18.141-4.6034 5.2752 0.11245 14.791-5.9219 19.357-4.944 3.7413-16.284 3.0552-22.502 6.4375 2.3039-7.0976 7.7053-16.588 6.3848-24.277-0.8176-4.7609-4.9052-7.3591-9.0742-7.2852zm-183.66 26.197c1.8038-0.06169 3.9146 0.1123 6.3828 0.56055 13.924 2.5287 20.931 23.869 35.096 28.877 8.3967 2.9686 19.49-3.8622 25.572 4.166 12.644 16.689 14.758 40.098 34.855 51.133 9.3319 5.1236 24.164 3.2635 31.559 11.217 6.0746 6.5333 1.5973 24.042 1.9863 32.379 0.67958 14.564 9.655 25.947 12.898 39.582-13.507-3.44-14.168-19.046-22.641-29.555-7.9716-9.8867-20.333-18.831-31.191-25.348-4.2868-2.5727-11.388-4.0448-14.832-7.5156-9.1077-9.1792-6.1014-24.178-12.42-34.426-4.2096-6.8271-16.341-9.7842-17.809 1.0566-0.88844 6.562 5.3031 16.806 6.5352 23.748-13.521-7.7545-23.573-20.31-30.541-34.041-3.3584-6.6183-5.5302-17.535-10.924-22.613-5.3893-5.0744-14.994-1.5524-14.84 6.2539 0.18182 9.1918 8.7608 19.533 11.973 27.971-5.1581-0.11091-13.363-3.1013-17.945-1.3125-8.5255 3.3279-6.1134 14.662 1.0566 17.926 7.7484 3.5268 18.333-1.6301 25.859 1.8867 6.5166 3.0449 8.9646 12.163 16.361 13.693-4.5298 5.8873-23.338 38.248-2.375 37.605 13.995-0.42923 3.8984-19.994 14.52-24.148 2.9125-1.1393 6.039 2.2657 9.2305 2.0488 24.961-1.6967 52.964 20.945 62.275 43.867-7.9124 1.5326-17.8 6.0665-25.861 4.9043-13.674-1.9713-24.796-12.545-38.789-14.66-9.0934-1.3744-24.369 2.7646-32.338-1.2285-6.1198-3.0663-11.278-13.907-17.801-18.35-7.7435-5.2742-24.713-6.4342-28.949-15.807-3.4218-7.571 0.39593-16.275-1.8848-23.996-4.3874-14.853-25.518-30.862-13.381-48.516 6.005-8.7344 19.895-3.9977 25.678-13.496 6.4593-10.61-4.7528-33.267 12.684-33.863zm408.52 8.2812c3.4136 0.07724 6.6978 0.74464 8.7109 2.6582 13.144 12.494-15.092 33.543-16.689 47.201-1.1572 9.8962 2.7883 19.742-0.39258 29.555-5.561 17.156-22.577 19.596-34.084 30.66-9.0498 8.7011-5.7795 27.205-14.271 33.584-8.5424 6.4166-20.544 5.3818-30.34 8.0293-32.975 8.9122-66.554 9.8964-100.27 15.334v-0.26367c13.672-11.217 35.547-26.726 44.859-41.693 4.924 1.6812 9.3213-0.70213 13.984 0.91015 9.5726 3.3098 26.847 19.155 37.732 12.08 5.1557-3.3512 5.6667-10.761 0.51954-14.391-4.1706-2.9413-9.7256-2.2767-14.238-4.3086-9.7234-4.378-15.765-11.705-27.443-11.707 2.0274-4.4482 13.886-12.019 18.738-12.088 18.576-0.26504 35.397 9.6982 54.621 6.2422 7.9635-1.4317 20.141-6.336 25.43-12.637 4.3178-5.1441 2.2145-13.616-4.8027-15.129-7.8805-1.6988-16.983 9.4601-25.377 10.598-8.9144 1.2081-17.284-1.6024-26.125-2.0547v-0.26367c17.892-7.0789 38.953-16.027 49.033-33.512 3.1396-5.4458 20.408-27.725 1.3691-26.701-10.988 0.59092-16.17 19.407-23.486 25.918-14.423 12.834-34.284 18.711-52.512 23.477 4.6887-8.8918 15.598-15.715 16.332-26.389 0.6025-8.7565-8.9284-20.525-16.619-10.545-2.7946 3.6266-0.01134 7.3443-1.8945 10.809-3.8996 7.1736-10.568 12.529-14.289 20.055-8.6737 17.541-14.977 43.058-30.764 55.68-1.141-10.083 3.1769-16.353 3.8672-26.125 0.67233-9.518-12.803-14.002-17.16-5.0117-7.038 14.521-0.99588 30.984-6.9355 45.121-5.1457 12.247-20.066 17.722-25.951 29.291l-12.402 1.3203c2.8166-16.65-8.7046-34.889-2.877-50.137 4.2875-11.218 19.271-11.227 26.068-20.057 7.2778-9.4538 4.7798-22.633 13.564-31.609 9.2116-9.4124 25.696-5.0302 36.867-10.822 18.826-9.7604 28.632-32.218 48.818-39.078 12.946-4.3994 28.524 3.5238 42.221 2.0664 16.797-1.7872 30.493-12.273 46.707-15.178 2.5289-0.453 6.0707-0.96591 9.4844-0.88868zm-416.51 159.95c-0.58588 0.00314-1.1619 0.03765-1.7266 0.10742-28.89 3.5692-10.049 40.198-17.492 60.002-7.1268 18.962-30.429 30.317-38.59 49.609-7.6835 18.163-2.9188 39.343 1.3398 57.525 6.1148 26.107 12.346 51.625 22.445 76.789 12.348 30.767 32.59 63.278 60.268 82.143 14.026 9.56 31.698 13.851 47.764 18.541 40.506 11.826 86.511 17.409 128.77 15.975 13.806-0.46868 27.576 2.884 41.43 0.94141 36.716-5.1484 79.302-17.437 106.34-43.992 32.848-32.264 45.86-83.946 56.445-127.17 6.0789-24.825 18.943-54.607 12.584-80.221-6.3924-25.749-32.95-40.047-46.961-60.773-6.754-9.9913 2.9139-31.757-5.7461-38.691-6.5303-5.2288-17.793 3.4194-23.969 6.5059-21.671 10.831-40.694 10.336-64.123 11.889-23.191 1.5365-45.567 8.0242-68.609 9.498-35.164 2.2492-73.81-2.1938-108.46-8.3242-25.643-4.5375-49.153-13.173-73.887-20.844-8.0408-2.4936-19.04-9.5529-27.828-9.5059zm-0.14258 19.471c37.181 3.888 70.654 27.518 109.25 29.291v0.26367c-21.612 5.5565-54.008 10.048-75.998 6.4492-11.617-1.901-21.774-15.286-33.248-13.838 1.8e-4 -7.341 1.217-14.878 0-22.166zm369.17 6.5977-0.52734 2.1113h-0.26367l0.79101-2.1113zm-16.889 6.5976c0 4.4359 3.7892 16.411 2.0644 19.852-1.5765 3.1446-8.3468 3.2399-11.299 4.1074-10.124 2.9751-19.247 7.592-29.82 9.5527 14.592-13.214 19.443-27.863 39.055-33.512zm-42.221 13.457c-10.648 12.522-38.354 16.428-53.832 19.24-50.855 9.2415-98.41 5.0165-149.62 2.6621 10.131-4.4582 27.588-13.825 38.262-15.018 21.413-2.3919 45.298 4.3538 67.291 3.0996 33.013-1.8826 64.379-9.9844 97.898-9.9844zm-305.31 15.305c20.611 13.726 47.317 14.927 71.246 19.289 67.974 12.39 136.24 8.8994 204.77 5.209 18.536-0.99822 39.283-0.63906 56.734-7.7891 5.674-2.3247 22.259-11.495 27.973-8.6953 15.651 7.6689 35.657 34.695 38.584 51.625 2.3756 13.739-5.9911 31.536-8.8145 44.859-7.7167 36.414-17.547 72.344-35.088 105.29-6.3952 12.011-11.467 25.776-22.656 34.469-60.438 46.956-132.48 39.762-204.24 32.143-35.959-3.8179-78.854-10.51-107.38-34.4-30.54-25.579-43.896-67.564-55.604-103.99-7.6284-23.732-17.367-51.125-13.131-76.525 4.2618-25.553 35.151-40.766 47.602-61.484zm360 23.34c-0.45047-0.01704-0.91245-0.00212-1.3887 0.04687-5.4369 0.55939-9.2495 5.2084-8.1641 10.654 1.791 8.9859 11.293 15.203 13.199 24.805 2.6404 13.296-2.8884 26.898-1.5234 40.109 0.49352 4.777 5.0663 7.887 9.6816 7.5918 8.2512-0.52776 10.229-13.532 11.77-19.994 4.3931-18.424 1.2294-35.382-9.4824-50.725-3.3997-4.8696-7.3348-12.233-14.092-12.488zm-321.78 11.068c-1.2058 0.03289-2.424 0.13762-3.6582 0.32421-23.847 3.6053-31.767 24.599-36.775 45.488-9.6294 40.165-8.7745 108.6 34.4 127.32 8.6347 3.743 15.023 7.4866 24.805 6.0352 13.222-1.9618 26.556-4.519 34.344-16.986 8.4959-13.601 2.4972-35.516 3.1582-50.662 0.79198-18.148-0.33631-36.46 0.17578-54.359 0.31338-10.953 4.8133-20.097-1.7539-30.346-6.4493-10.064-20.536-15.204-30.91-20.139-7.5662-3.5991-15.344-6.9041-23.785-6.6738zm287.21 7.0391c-1.5929-0.02451-3.2865 0.11525-5.0859 0.43359-31.288 5.5352-65.189 7.1493-81.141 39.131-3.7782 7.5748-2.6392 24.822-2.8828 33.514-0.61957 22.108-1.5745 44.477-5.8555 66.234-1.8859 9.5849-7.2772 24.759-0.8086 33.242 8.6784 11.382 29.116 7.3117 41.078 5.6309 55.256-7.7642 70.451-75.632 77.275-122.79 2.5978-17.952 1.3138-55.031-22.58-55.398zm39.879 88.609c-0.61015 0.03146-1.2599 0.09866-1.9512 0.20508-5.4256 0.83532-6.584 6.1992-7.8848 10.65-3.1665 10.836-10.448 21.057-11.324 32.459-0.44252 5.7611 3.8242 10.995 9.9727 10.143 6.6101-0.91604 7.5115-7.4734 8.9219-12.781 2.0178-7.5943 21.18-41.651 2.2656-40.676zm-261.39 71.488c-1.8987 0.08387-3.8196 0.74468-5.4648 2.043-16.49 13.012-0.20026 44.506 13.951 51.363 13.432 6.5084 25.272-2.3675 34.832-11.125 15.323 27.378 47.572 15.798 56.52-8.9726 1.9286-5.3391 5.766-12.421 3.6797-18.207-2.0084-5.5698-9.1801-7.3474-13.699-3.6758-7.9457 6.4555-4.0694 25.881-16.418 29.023-20.706 5.2687-15.825-31.801-29.289-29.939-15.115 2.0899-9.7189 29.254-26.389 27.236-17.023-2.0608-7.169-21.874-8.6562-30.561-0.8153-4.7619-4.8893-7.37-9.0664-7.1856z" fill="#020202"/>
 </g>
</svg>
